<?xml version="1.0" standalone="no"?>
<!DOCTYPE svg PUBLIC "-//W3C//DTD SVG 20010904//EN"
 "http://www.w3.org/TR/2001/REC-SVG-20010904/DTD/svg10.dtd">
<svg version="1.0" xmlns="http://www.w3.org/2000/svg"
 width="512.000000pt" height="512.000000pt" viewBox="0 0 512.000000 512.000000"
 preserveAspectRatio="xMidYMid meet">

<g transform="translate(0.000000,512.000000) scale(0.100000,-0.100000)"
fill="#000000" stroke="none">
<path d="M2805 5109 c-160 -23 -370 -107 -505 -202 -138 -98 -305 -292 -364
-424 l-19 -42 -416 -3 -417 -3 -76 -38 c-139 -68 -218 -184 -226 -330 -6 -99
9 -169 52 -240 l34 -56 -52 -11 c-204 -43 -400 -230 -464 -440 -89 -296 44
-617 315 -758 125 -65 180 -76 389 -76 165 -1 184 1 203 18 29 26 29 86 0 112
-19 17 -43 20 -218 24 l-198 5 -85 42 c-179 89 -278 247 -278 444 0 196 98
357 273 446 76 38 166 53 329 53 146 0 147 0 167 26 12 15 21 38 21 51 0 35
-42 73 -82 73 -89 0 -181 53 -225 128 -24 41 -28 58 -28 127 0 70 4 86 28 128
31 52 95 100 157 117 21 6 248 10 563 10 319 0 535 4 546 10 10 5 24 22 30 39
10 24 10 34 -3 59 -19 37 -32 42 -107 42 -32 0 -59 4 -59 8 0 5 23 42 51 83
282 412 825 553 1274 330 335 -166 555 -511 555 -867 l0 -84 -146 0 -146 0
-30 -30 c-24 -25 -29 -36 -23 -58 15 -59 15 -59 273 -65 172 -4 252 -9 292
-21 201 -57 358 -221 406 -422 12 -49 15 -95 11 -159 -9 -146 -55 -252 -155
-357 -100 -106 -222 -164 -364 -175 -96 -7 -128 -27 -128 -79 0 -21 8 -42 21
-55 20 -20 29 -21 113 -17 286 16 542 216 633 495 34 102 42 265 19 373 -55
266 -288 496 -556 552 l-57 11 -11 131 c-25 289 -122 515 -305 712 -261 280
-642 416 -1012 363z"/>
<path d="M2472 4433 c-7 -3 -19 -18 -28 -35 -13 -25 -13 -35 -3 -59 16 -41 36
-49 124 -49 67 0 79 3 100 25 14 13 25 36 25 50 0 14 -11 37 -25 50 -22 22
-32 25 -102 24 -43 0 -84 -3 -91 -6z"/>
<path d="M2071 3684 c-17 -22 -21 -41 -21 -104 l0 -77 -59 -6 c-156 -14 -301
-160 -319 -321 l-7 -61 -81 -5 c-96 -6 -124 -23 -124 -77 0 -57 27 -73 120
-73 l80 0 0 -175 0 -175 -74 0 c-89 0 -126 -21 -126 -74 0 -59 18 -70 117 -76
l88 -5 3 -172 2 -173 -78 0 c-96 0 -132 -20 -132 -74 0 -59 18 -70 117 -76
l88 -5 7 -57 c20 -163 149 -291 322 -321 l66 -11 0 -340 0 -341 -122 -122
-121 -122 -31 17 c-48 26 -179 23 -232 -5 -66 -35 -101 -70 -131 -130 -91
-187 44 -403 252 -403 187 0 322 178 270 355 l-16 58 140 142 141 142 0 376 0
377 175 0 175 0 0 -540 0 -541 25 -24 c31 -32 74 -33 103 -2 l22 23 0 542 0
542 175 0 175 0 0 -372 0 -371 145 -147 146 -146 -16 -37 c-8 -20 -15 -65 -15
-99 0 -113 62 -207 169 -256 45 -21 64 -24 125 -20 87 6 139 31 194 93 101
115 96 272 -12 381 -82 81 -190 105 -295 65 l-49 -18 -121 121 -121 121 0 342
0 342 56 7 c73 9 182 63 228 114 50 56 84 128 98 210 l12 70 74 0 c40 0 82 5
93 11 48 25 44 105 -7 128 -14 6 -56 11 -94 11 l-70 0 0 175 0 175 78 0 c86 0
116 13 126 55 7 27 -7 62 -33 82 -9 7 -48 12 -93 13 l-78 0 0 175 0 174 86 3
c81 3 88 5 107 30 23 31 18 67 -15 98 -18 16 -35 20 -99 20 l-77 0 -6 54 c-21
164 -163 306 -327 324 l-64 7 -5 88 c-6 99 -17 117 -76 117 -54 0 -74 -36 -74
-132 l0 -78 -172 2 -173 3 -5 88 c-6 99 -17 117 -76 117 -54 0 -74 -36 -74
-132 l0 -78 -172 2 -173 3 -5 88 c-4 73 -9 91 -24 103 -33 23 -82 18 -105 -12z
m1220 -346 c57 -16 114 -70 136 -126 17 -44 18 -91 18 -682 0 -717 5 -671 -80
-749 -31 -29 -57 -42 -97 -50 -39 -8 -236 -11 -664 -9 -569 3 -612 4 -652 22
-51 22 -105 82 -120 135 -9 27 -12 218 -12 667 0 589 2 632 19 669 23 51 65
93 116 116 37 17 80 19 669 19 449 0 640 -3 667 -12z m-1554 -2828 c65 -39 85
-115 47 -178 -65 -111 -237 -60 -237 69 0 46 23 83 66 109 41 25 83 25 124 0z
m1922 2 c37 -20 71 -73 71 -110 0 -68 -62 -132 -128 -132 -131 0 -180 172 -69
240 40 25 82 25 126 2z"/>
<path d="M1990 3180 c-20 -20 -20 -33 -20 -644 l0 -625 26 -20 c26 -20 38 -21
380 -21 241 0 361 4 378 11 30 14 51 60 42 94 -13 51 -38 55 -371 55 l-305 0
0 510 0 510 510 0 510 0 0 -509 0 -509 -64 -4 c-78 -5 -106 -25 -106 -75 0
-23 8 -42 25 -58 23 -24 31 -25 135 -25 110 0 112 0 141 29 l29 30 -2 616 -3
617 -24 19 c-22 18 -48 19 -642 19 -606 0 -619 0 -639 -20z"/>
<path d="M555 2305 l-25 -24 0 -244 c0 -235 -1 -245 -21 -263 -32 -29 -49 -69
-49 -114 0 -132 146 -196 246 -108 64 56 66 153 4 213 l-30 29 0 243 0 244
-25 24 c-13 14 -36 25 -50 25 -14 0 -37 -11 -50 -25z"/>
<path d="M4599 2311 c-24 -19 -24 -20 -27 -268 -3 -244 -3 -248 -26 -273 -35
-37 -46 -64 -46 -110 0 -132 146 -196 246 -108 64 56 66 153 4 213 l-30 29 0
247 0 248 -26 20 c-33 26 -65 27 -95 2z"/>
<path d="M1051 2104 c-19 -25 -21 -40 -21 -196 0 -166 0 -169 25 -193 13 -14
36 -25 50 -25 14 0 37 11 50 25 25 24 25 27 25 198 0 168 -1 174 -23 195 -33
31 -80 29 -106 -4z"/>
<path d="M4099 2111 l-24 -19 0 -481 0 -481 176 -177 176 -178 -9 -36 c-13
-50 5 -110 45 -156 100 -114 285 -71 322 75 16 60 7 107 -28 161 -35 53 -86
76 -169 76 l-68 0 -150 150 -150 150 0 447 c0 435 -1 449 -20 468 -25 25 -71
26 -101 1z"/>
<path d="M1055 1495 c-24 -23 -25 -29 -25 -162 l0 -138 -153 -153 -153 -153
-54 6 c-46 5 -63 2 -99 -17 -64 -33 -103 -86 -109 -146 -11 -122 68 -212 188
-212 67 0 123 29 157 82 24 36 28 52 28 114 l0 73 173 174 172 173 0 168 c0
164 0 167 -25 191 -13 14 -36 25 -50 25 -14 0 -37 -11 -50 -25z"/>
<path d="M2585 215 c-22 -21 -25 -33 -25 -95 0 -62 3 -74 25 -95 30 -30 64
-32 99 -4 24 19 26 26 26 98 0 68 -3 80 -23 99 -31 29 -72 28 -102 -3z"/>
</g>
</svg>
