<?xml version="1.0" standalone="no"?>
<!DOCTYPE svg PUBLIC "-//W3C//DTD SVG 20010904//EN"
 "http://www.w3.org/TR/2001/REC-SVG-20010904/DTD/svg10.dtd">
<svg version="1.0" xmlns="http://www.w3.org/2000/svg"
 width="512.000000pt" height="512.000000pt" viewBox="0 0 512.000000 512.000000"
 preserveAspectRatio="xMidYMid meet">

<g transform="translate(0.000000,512.000000) scale(0.100000,-0.100000)"
fill="#000000" stroke="none">
<path d="M2331 5110 c-498 -48 -971 -238 -1364 -547 -107 -83 -362 -344 -444
-453 -322 -430 -497 -920 -519 -1455 -25 -581 160 -1167 519 -1644 93 -123
285 -321 412 -426 777 -639 1859 -764 2754 -319 259 129 438 254 639 449 227
218 386 436 522 710 93 189 139 310 185 489 114 451 111 888 -10 1331 -87 315
-252 641 -462 908 -83 107 -344 362 -454 444 -350 263 -749 431 -1172 494
-153 23 -464 32 -606 19z m1387 -1006 c21 -15 22 -21 22 -178 0 -176 -4 -191
-52 -184 -23 3 -23 5 -26 146 l-3 142 -1154 0 -1155 0 0 -134 c0 -144 -6 -161
-52 -154 -23 3 -23 4 -26 178 -2 156 -1 176 15 187 13 10 269 13 1213 13 1066
0 1198 -2 1218 -16z m-3000 -853 c3 -74 -2 -81 -65 -81 -69 0 -73 4 -73 74 0
35 3 66 7 70 4 4 34 6 68 4 l60 -3 3 -64z m180 57 c16 -16 16 -110 0 -126 -18
-18 -103 -15 -122 4 -19 19 -22 104 -4 122 16 16 110 16 126 0z m190 -57 c2
-45 -1 -67 -10 -72 -20 -13 -102 -11 -116 3 -13 13 -17 120 -5 132 4 4 34 6
68 4 l60 -3 3 -64z m3315 15 c76 -31 93 -122 33 -182 -27 -27 -42 -34 -72 -34
-22 1 -49 6 -62 14 -30 16 -62 65 -62 94 0 36 28 81 63 102 38 24 57 25 100 6z
m-1488 -95 c0 -48 -1 -50 -37 -65 -72 -28 -72 -91 1 -202 74 -114 180 -214
394 -373 l57 -43 0 -60 0 -60 -27 17 c-223 142 -468 377 -538 515 -74 145 -42
257 85 300 30 11 57 19 60 20 3 0 5 -22 5 -49z m353 5 c51 -13 95 -26 98 -29
10 -10 -8 -97 -21 -97 -6 0 -36 8 -66 19 -31 10 -74 22 -96 26 l-42 7 1 49 c2
58 -2 58 126 25z m361 -133 c128 -55 311 -154 331 -178 6 -7 10 -36 8 -63 l-3
-50 -85 50 c-47 28 -161 87 -255 131 -93 44 -172 81 -174 83 -2 2 0 24 3 49 9
54 -3 56 175 -22z m600 -352 c124 -90 311 -272 365 -355 72 -109 92 -198 62
-270 -22 -53 -108 -106 -171 -106 -11 0 -36 -11 -55 -25 -45 -33 -80 -32 -114
3 -34 37 -43 89 -22 130 36 70 102 78 151 20 22 -26 30 -29 57 -24 175 35 -7
315 -374 578 l-58 41 0 60 0 59 28 -17 c15 -10 74 -52 131 -94z m-419 -11 c29
-29 26 -74 -6 -99 -15 -12 -32 -21 -39 -21 -7 0 -24 9 -39 21 -48 38 -22 119
39 119 14 0 34 -9 45 -20z m-3095 -90 l0 -65 -65 0 -65 0 -3 54 c-5 80 -2 82
70 79 l63 -3 0 -65z m184 56 c7 -8 11 -37 9 -68 l-3 -53 -67 -3 -68 -3 0 64
c0 35 3 67 7 70 13 13 110 7 122 -7z m179 5 c9 -5 12 -26 10 -67 l-3 -59 -59
-3 c-41 -2 -62 1 -67 10 -13 20 -11 102 3 116 14 14 96 16 116 3z m2607 -371
c11 -4 67 -30 125 -57 58 -28 113 -53 124 -56 11 -5 16 -13 12 -23 -3 -9 -6
-27 -6 -40 0 -14 -7 -27 -15 -30 -18 -7 -238 90 -380 168 -60 34 -111 61 -111
62 -1 1 -5 29 -9 63 l-7 62 124 -71 c67 -39 132 -74 143 -78z m567 -262 c-3
-40 -7 -48 -20 -44 -10 3 -30 8 -47 12 -16 3 -61 15 -98 26 -54 15 -67 23 -63
36 2 9 7 31 11 48 l6 31 107 -30 107 -29 -3 -50z m-1134 33 c4 -28 -14 -51
-42 -51 -30 0 -46 18 -46 52 0 55 80 54 88 -1z m-2403 -121 l0 -65 -65 0 -65
0 -3 54 c-5 80 -2 82 70 79 l63 -3 0 -65z m190 47 c4 -13 5 -43 3 -68 l-3 -44
-67 -3 -68 -3 0 64 c0 35 3 67 7 70 3 4 32 7 64 7 53 0 59 -2 64 -23z m433
-609 c8 -8 12 -55 12 -145 l0 -133 1155 0 1154 0 3 143 c3 140 3 142 26 145
48 7 52 -8 52 -184 0 -157 -1 -163 -22 -178 -20 -14 -152 -16 -1216 -16 -803
0 -1200 3 -1213 10 -18 10 -19 23 -19 184 0 95 3 176 7 179 11 11 48 8 61 -5z"/>
</g>
</svg>
