<?xml version="1.0" standalone="no"?>
<!DOCTYPE svg PUBLIC "-//W3C//DTD SVG 20010904//EN"
 "http://www.w3.org/TR/2001/REC-SVG-20010904/DTD/svg10.dtd">
<svg version="1.0" xmlns="http://www.w3.org/2000/svg"
 width="512.000000pt" height="512.000000pt" viewBox="0 0 512.000000 512.000000"
 preserveAspectRatio="xMidYMid meet">

<g transform="translate(0.000000,512.000000) scale(0.100000,-0.100000)"
fill="#000000" stroke="none">
<path d="M1440 4560 l0 -240 80 0 80 0 0 240 0 240 -80 0 -80 0 0 -240z"/>
<path d="M3746 4603 c-30 -208 -31 -210 -117 -238 -30 -10 -80 -31 -111 -46
-84 -42 -102 -39 -204 36 l-88 65 -63 -62 c-34 -34 -59 -66 -56 -72 4 -6 33
-46 65 -88 68 -90 71 -112 29 -196 -15 -31 -36 -81 -46 -111 -28 -86 -30 -87
-237 -117 l-38 -6 0 -89 c0 -49 2 -89 5 -89 28 0 211 -33 225 -40 10 -5 26
-31 35 -57 10 -27 33 -81 51 -122 19 -40 34 -86 34 -101 0 -19 -20 -55 -58
-107 -32 -43 -61 -83 -64 -89 -4 -6 21 -38 55 -72 l63 -62 88 65 c59 43 97 65
116 65 15 0 61 -15 101 -34 41 -18 95 -41 122 -51 26 -9 52 -25 57 -35 7 -14
40 -197 40 -225 0 -3 41 -5 90 -5 50 0 90 2 90 5 0 28 33 211 40 225 5 10 31
26 57 35 27 10 81 33 122 51 40 19 86 34 101 34 19 0 57 -22 116 -65 l88 -65
63 62 c34 34 59 66 56 72 -4 6 -33 46 -65 88 -69 92 -71 108 -24 209 18 41 41
95 51 122 9 26 25 52 35 57 14 7 197 40 225 40 3 0 5 41 5 90 0 50 -2 90 -5
90 -28 0 -211 33 -225 40 -10 5 -26 31 -35 57 -10 27 -33 81 -51 122 -47 101
-45 117 24 209 32 42 61 82 65 88 3 6 -22 38 -56 72 l-63 62 -88 -65 c-102
-75 -120 -78 -204 -36 -31 16 -83 37 -116 47 -33 10 -64 27 -72 39 -8 12 -21
69 -30 128 l-17 107 -88 0 -87 0 -6 -37z m204 -454 c172 -39 323 -194 361
-369 16 -74 6 -202 -21 -270 -41 -107 -152 -226 -250 -268 -218 -93 -457 -28
-592 162 -193 272 -55 650 272 742 56 15 170 17 230 3z"/>
<path d="M3767 3990 c-56 -15 -108 -44 -151 -87 -122 -120 -122 -325 0 -447
122 -122 326 -122 448 0 122 122 122 326 0 448 -73 73 -201 110 -297 86z"/>
<path d="M1204 4557 c-76 -56 -119 -118 -148 -214 -7 -23 -7 -23 108 -23 l116
0 0 140 c0 77 -4 140 -9 140 -5 0 -35 -19 -67 -43z"/>
<path d="M1760 4460 l0 -140 116 0 c115 0 115 0 109 23 -16 50 -46 111 -76
148 -29 37 -123 109 -141 109 -5 0 -8 -63 -8 -140z"/>
<path d="M923 4148 c-12 -6 -27 -23 -34 -39 -15 -37 2 -82 37 -98 18 -8 192
-11 594 -11 402 0 576 3 594 11 13 7 30 25 37 40 15 37 -2 82 -37 98 -34 15
-1159 14 -1191 -1z"/>
<path d="M500 3991 c-69 -21 -121 -65 -156 -131 -18 -33 -19 -80 -22 -987 l-2
-953 80 0 80 0 0 158 c0 104 5 178 15 221 30 125 114 250 223 328 23 17 140
74 262 128 l220 98 0 56 c-1 56 -1 56 -51 90 -99 68 -201 205 -239 324 -10 33
-15 37 -46 37 -77 0 -161 57 -200 136 -70 142 19 314 176 342 l45 8 -30 16
c-34 19 -97 82 -114 116 -11 21 -18 22 -114 21 -56 0 -113 -4 -127 -8z"/>
<path d="M2299 3978 c-17 -34 -80 -97 -114 -116 l-30 -16 45 -8 c189 -33 266
-266 133 -403 -44 -45 -105 -74 -155 -75 -33 0 -37 -3 -48 -37 -38 -119 -140
-256 -239 -324 -50 -34 -50 -34 -51 -89 l0 -55 221 -99 c240 -108 311 -153
377 -238 97 -127 122 -218 122 -440 l0 -158 800 0 800 0 0 470 0 469 -22 -8
c-25 -9 -31 -28 -48 -155 -19 -138 -15 -136 -250 -136 -234 0 -230 -2 -249
131 -21 151 -21 149 -55 163 -106 44 -92 46 -196 -33 -68 -51 -103 -71 -124
-71 -25 0 -52 22 -168 138 -113 113 -138 143 -138 167 0 20 21 57 71 123 l72
95 -13 36 c-40 110 -22 98 -189 122 -133 19 -131 15 -131 249 0 235 -2 231
136 250 127 17 146 23 155 48 l8 22 -354 0 -354 0 -12 -22z m1221 -1498 l0
-80 -320 0 -320 0 0 80 0 80 320 0 320 0 0 -80z m0 -320 l0 -80 -320 0 -320 0
0 80 0 80 320 0 320 0 0 -80z"/>
<path d="M1040 3667 c0 -95 5 -200 11 -233 46 -250 293 -426 541 -385 201 33
361 189 397 385 6 33 11 138 11 233 l0 173 -480 0 -480 0 0 -173z m320 -67 l0
-80 -80 0 -80 0 0 80 0 80 80 0 80 0 0 -80z m480 0 l0 -80 -80 0 -80 0 0 80 0
80 80 0 80 0 0 -80z"/>
<path d="M843 3668 c-32 -16 -48 -61 -34 -97 10 -23 46 -51 66 -51 3 0 5 36 5
80 0 44 -3 80 -7 79 -5 0 -18 -5 -30 -11z"/>
<path d="M2160 3600 c0 -44 2 -80 5 -80 20 0 56 28 66 51 15 37 -2 82 -37 98
-14 6 -27 11 -29 11 -3 0 -5 -36 -5 -80z"/>
<path d="M1360 2875 c0 -37 80 -75 160 -75 80 0 160 38 160 75 0 22 -3 24 -32
17 -18 -4 -76 -7 -128 -7 -52 0 -110 3 -127 7 -30 7 -33 5 -33 -17z"/>
<path d="M1218 2683 c-53 -23 -57 -28 -52 -52 10 -41 18 -44 79 -25 43 14 60
25 72 47 8 16 13 30 11 32 -6 5 -47 25 -50 24 -2 0 -29 -12 -60 -26z"/>
<path d="M1735 2698 c-11 -6 -21 -12 -23 -14 -2 -1 3 -15 11 -31 12 -22 29
-33 72 -47 61 -19 69 -16 79 25 5 24 1 28 -53 53 -67 30 -60 29 -86 14z"/>
<path d="M1474 2609 c-16 -31 -15 -32 15 -63 l31 -31 31 31 c30 31 31 32 15
63 -13 24 -23 31 -46 31 -23 0 -33 -7 -46 -31z"/>
<path d="M926 2554 c-102 -45 -165 -91 -209 -156 -62 -90 -70 -124 -75 -310
l-4 -168 288 0 289 0 59 266 c32 146 56 268 53 271 -3 3 -48 -9 -99 -26 -51
-17 -103 -31 -116 -31 -38 0 -67 40 -87 118 -9 40 -18 72 -19 71 0 0 -37 -16
-80 -35z"/>
<path d="M2014 2517 c-19 -77 -48 -117 -86 -117 -13 0 -65 14 -116 31 -51 17
-96 29 -99 26 -3 -3 21 -125 53 -271 l59 -266 288 0 287 0 0 143 c0 158 -14
233 -57 306 -40 68 -107 127 -190 167 -131 62 -119 63 -139 -19z"/>
<path d="M1470 2322 c0 -5 -81 -368 -86 -384 -5 -17 6 -18 136 -18 130 0 141
1 136 18 -5 16 -86 379 -86 384 0 2 -22 3 -50 3 -27 0 -50 -1 -50 -3z"/>
<path d="M322 1608 c3 -125 7 -159 22 -188 26 -49 64 -88 111 -113 l40 -22
1745 0 1745 0 40 22 c47 25 85 64 111 113 15 29 19 63 22 188 l4 152 -1922 0
-1922 0 4 -152z m3518 -88 l0 -80 -80 0 -80 0 0 80 0 80 80 0 80 0 0 -80z"/>
<path d="M1750 1113 c0 -11 -50 -407 -55 -440 l-6 -33 551 0 551 0 -6 33 c-5
33 -55 429 -55 440 0 4 -220 7 -490 7 -269 0 -490 -3 -490 -7z"/>
<path d="M1403 468 c-12 -6 -27 -23 -34 -39 -15 -37 2 -82 37 -98 35 -16 1633
-16 1668 0 55 26 55 112 0 138 -34 15 -1639 14 -1671 -1z"/>
</g>
</svg>
