<?xml version="1.0" standalone="no"?>
<!DOCTYPE svg PUBLIC "-//W3C//DTD SVG 20010904//EN"
 "http://www.w3.org/TR/2001/REC-SVG-20010904/DTD/svg10.dtd">
<svg version="1.0" xmlns="http://www.w3.org/2000/svg"
 width="512.000000pt" height="512.000000pt" viewBox="0 0 512.000000 512.000000"
 preserveAspectRatio="xMidYMid meet">

<g transform="translate(0.000000,512.000000) scale(0.100000,-0.100000)"
fill="#000000" stroke="none">
<path d="M707 4900 c-105 -18 -200 -89 -247 -185 l-25 -50 -3 -2085 c-2 -1890
-1 -2090 14 -2134 31 -99 103 -172 206 -214 40 -16 136 -17 1268 -17 l1225 0
58 23 c69 28 143 98 177 167 25 49 25 54 28 357 l3 307 532 3 532 3 50 27 c60
31 104 77 136 138 l24 45 0 1275 0 1275 -27 50 c-31 60 -77 104 -138 136 l-45
24 -532 3 -532 3 -3 307 c-3 303 -3 308 -28 357 -34 69 -108 139 -177 167
l-58 23 -1195 1 c-657 1 -1216 -2 -1243 -6z m493 -391 c58 -117 106 -200 123
-215 l29 -24 568 0 568 0 29 24 c17 15 65 98 123 215 l95 191 170 0 c192 0
233 -8 269 -51 l26 -31 0 -284 0 -284 -743 -2 -742 -3 -51 -27 c-28 -15 -70
-48 -92 -73 -77 -88 -72 8 -72 -1385 0 -1393 -5 -1297 72 -1385 22 -25 64 -58
92 -73 l51 -27 743 -3 742 -2 0 -110 0 -110 -1280 0 -1280 0 0 1884 0 1884 26
31 c14 17 40 35 57 40 18 5 111 10 207 10 l175 1 95 -191z m1290 181 c0 -6
-23 -55 -50 -110 l-50 -100 -470 0 -470 0 -50 100 c-27 55 -50 104 -50 110 0
7 190 10 570 10 380 0 570 -3 570 -10z m616 -1001 c80 -159 120 -210 189 -244
38 -19 66 -20 613 -23 l572 -2 0 -1044 0 -1043 -26 -27 -27 -26 -1329 0 c-933
0 -1335 3 -1350 11 -49 26 -48 -6 -48 1269 0 1268 -1 1241 47 1269 12 7 219
10 650 11 l632 0 77 -151z m1345 122 c27 -28 29 -34 29 -111 l0 -81 -543 3
c-457 3 -547 5 -561 17 -15 13 -106 181 -106 196 0 3 259 5 576 5 l576 0 29
-29z m-1251 -3233 c0 -69 -21 -117 -62 -140 -34 -19 -2402 -19 -2436 0 -41 23
-62 71 -62 140 l0 62 1280 0 1280 0 0 -62z"/>
<path d="M2632 3618 c-37 -10 -72 -58 -72 -98 0 -95 124 -138 188 -65 66 77
-14 190 -116 163z"/>
<path d="M2167 3592 c-62 -65 -17 -172 73 -172 33 0 48 6 71 29 65 66 20 171
-73 171 -35 0 -50 -6 -71 -28z"/>
<path d="M2174 3171 c-63 -46 -242 -237 -250 -265 -3 -14 -3 -38 1 -53 9 -37
251 -279 288 -288 38 -10 69 0 100 31 21 21 27 36 27 72 0 42 -4 49 -82 128
l-82 84 82 84 c78 79 82 86 82 127 -1 47 -10 65 -50 92 -35 25 -72 21 -116
-12z"/>
<path d="M2827 3184 c-22 -12 -54 -67 -147 -255 -66 -132 -120 -249 -120 -260
0 -89 119 -140 177 -76 12 12 71 122 132 244 117 236 129 275 93 319 -36 45
-85 55 -135 28z"/>
<path d="M3254 3182 c-37 -24 -59 -71 -50 -109 4 -16 43 -65 89 -110 l82 -83
-82 -82 c-56 -56 -85 -93 -89 -114 -13 -66 54 -132 120 -120 24 5 65 40 164
139 129 130 132 135 132 177 0 42 -3 47 -132 177 -148 148 -174 162 -234 125z"/>
<path d="M1958 2101 c-28 -25 -33 -36 -33 -75 0 -36 6 -51 28 -73 l27 -28 564
-3 c358 -1 573 1 590 8 68 26 83 121 26 173 l-30 27 -570 0 -570 0 -32 -29z"/>
<path d="M1992 1699 c-37 -11 -72 -59 -72 -99 0 -43 35 -88 77 -99 52 -15
1923 -15 1975 -1 104 29 104 171 0 200 -48 13 -1933 12 -1980 -1z"/>
</g>
</svg>
