<?xml version="1.0" standalone="no"?>
<!DOCTYPE svg PUBLIC "-//W3C//DTD SVG 20010904//EN"
 "http://www.w3.org/TR/2001/REC-SVG-20010904/DTD/svg10.dtd">
<svg version="1.0" xmlns="http://www.w3.org/2000/svg"
 width="512.000000pt" height="512.000000pt" viewBox="0 0 512.000000 512.000000"
 preserveAspectRatio="xMidYMid meet">

<g transform="translate(0.000000,512.000000) scale(0.100000,-0.100000)"
fill="#000000" stroke="none">
<path d="M3920 2752 l0 -1002 100 0 100 0 0 -195 0 -195 -1557 0 -1558 0 676
-676 676 -676 204 0 c130 0 248 6 324 17 573 77 1076 325 1480 730 459 458
714 1038 749 1701 l5 100 -600 600 -599 599 0 -1003z"/>
<path d="M1978 3573 l-588 -3 0 -820 0 -820 1175 0 1175 0 0 825 0 825 -587
-2 c-324 -2 -852 -4 -1175 -5z m702 -254 c36 -6 69 -15 73 -19 5 -4 -37 -234
-92 -511 -55 -277 -103 -525 -106 -550 -11 -74 -10 -74 -114 -54 -84 16 -90
19 -86 39 3 11 51 246 106 521 132 651 119 596 138 591 9 -3 45 -10 81 -17z
m-523 -141 c35 -34 63 -67 63 -73 0 -5 -78 -87 -172 -182 l-173 -173 175 -175
175 -175 -68 -67 -67 -68 -245 245 -245 245 242 242 c134 134 245 243 248 243
2 0 33 -28 67 -62z m1116 -186 l237 -237 -243 -243 -242 -242 -65 65 -65 65
178 178 177 177 -175 175 -175 175 62 62 c34 35 65 63 68 63 3 0 112 -107 243
-238z"/>
</g>
</svg>
