<?xml version="1.0" standalone="no"?>
<!DOCTYPE svg PUBLIC "-//W3C//DTD SVG 20010904//EN"
 "http://www.w3.org/TR/2001/REC-SVG-20010904/DTD/svg10.dtd">
<svg version="1.0" xmlns="http://www.w3.org/2000/svg"
 width="512.000000pt" height="512.000000pt" viewBox="0 0 512.000000 512.000000"
 preserveAspectRatio="xMidYMid meet">

<g transform="translate(0.000000,512.000000) scale(0.100000,-0.100000)"
fill="#000000" stroke="none">
<path d="M1893 4994 c-45 -23 -63 -67 -63 -161 l0 -79 -72 -23 c-40 -13 -110
-41 -155 -64 l-83 -40 -63 60 c-102 98 -144 94 -262 -26 l-69 -71 -426 0
c-422 0 -426 0 -470 -22 -26 -14 -57 -41 -75 -66 l-30 -44 -3 -1551 c-2 -1112
0 -1563 8 -1590 6 -21 27 -56 47 -78 64 -71 33 -69 975 -69 l838 0 0 -210 0
-210 -335 0 c-366 0 -373 -1 -411 -57 -16 -24 -19 -52 -22 -189 -4 -140 -2
-163 13 -177 15 -16 109 -17 1225 -17 1112 0 1210 1 1225 17 25 24 18 312 -8
360 -33 62 -41 63 -412 63 l-335 0 0 210 0 210 838 0 c942 0 911 -2 975 69 20
22 41 57 47 78 8 27 10 478 8 1590 l-3 1551 -30 44 c-18 25 -49 52 -75 66
l-44 22 -811 0 -811 0 -69 71 c-118 120 -160 124 -262 26 l-63 -60 -98 46
c-53 25 -122 53 -154 63 l-56 17 -4 88 c-3 94 -19 131 -69 156 -38 20 -315 17
-356 -3z m2097 -499 c0 -16 -88 -447 -92 -451 -2 -1 -27 26 -56 62 -29 35 -58
64 -66 64 -8 0 -265 -204 -573 -453 -307 -249 -569 -460 -583 -470 -35 -25
-101 -22 -136 5 -16 13 -154 128 -307 255 -167 140 -287 233 -299 233 -12 0
-86 -53 -170 -121 -82 -67 -153 -117 -158 -113 -15 16 -40 117 -46 184 l-6 65
142 115 c211 170 232 180 295 142 17 -11 160 -128 319 -260 159 -133 295 -242
303 -242 7 0 84 57 171 127 643 519 850 688 870 709 26 30 22 42 -40 117 l-40
47 236 0 c201 0 236 -2 236 -15z m-1781 -210 c137 -33 289 -143 356 -259 46
-79 76 -174 82 -261 l6 -81 -43 -37 c-24 -20 -47 -37 -51 -37 -4 0 -137 108
-295 240 -190 158 -301 244 -324 250 -89 25 -134 7 -287 -115 -70 -57 -130
-101 -132 -99 -2 2 15 43 39 91 73 148 215 265 371 307 71 19 198 19 278 1z
m-1083 -103 c-19 -37 -44 -100 -56 -140 l-22 -72 -80 0 c-158 0 -178 -28 -178
-248 0 -139 2 -151 23 -183 28 -42 71 -58 164 -58 l71 -1 21 -69 c12 -38 40
-108 64 -155 l43 -86 -58 -57 c-111 -110 -104 -145 57 -302 110 -108 115 -111
158 -111 48 0 93 27 155 92 l33 35 72 -38 c40 -20 109 -49 155 -64 l82 -27 0
-83 c0 -69 4 -87 23 -116 32 -48 71 -58 222 -58 208 0 236 20 245 170 l5 90
85 30 c47 16 92 32 101 35 15 5 15 1 2 -48 -21 -79 -28 -235 -13 -325 26 -169
109 -330 232 -450 87 -86 119 -109 223 -159 198 -95 396 -108 612 -39 233 74
438 278 517 515 154 464 -132 963 -608 1061 -138 28 -229 24 -415 -18 -21 -5
-23 -3 -16 13 4 10 19 52 32 92 l25 72 72 1 c144 1 178 32 186 171 l5 91 202
163 202 164 63 -80 c66 -84 91 -101 114 -78 7 7 28 85 46 173 l33 160 204 3
c142 2 208 -1 217 -9 11 -9 14 -75 14 -350 0 -328 1 -339 20 -349 28 -15 28
-80 0 -98 -19 -12 -20 -23 -20 -258 0 -237 1 -246 20 -251 17 -4 20 -14 20
-57 0 -40 -4 -54 -20 -64 -20 -12 -20 -23 -20 -640 0 -475 -3 -631 -12 -640
-17 -17 -3959 -17 -3976 0 -17 17 -17 2689 0 2706 9 9 100 12 350 12 l338 0
-34 -68z m2219 60 c-6 -5 -59 -49 -120 -97 -60 -49 -117 -95 -126 -102 -15
-13 -19 -9 -34 39 -10 29 -31 79 -47 111 l-28 57 182 0 c100 0 178 -4 173 -8z
m-1212 -804 c131 -110 235 -203 232 -207 -9 -16 -133 -60 -200 -72 -189 -33
-410 50 -531 198 -53 66 -66 46 116 191 69 55 130 97 135 94 6 -3 117 -95 248
-204z m1382 -208 c205 -64 366 -200 455 -385 57 -118 73 -190 73 -325 0 -135
-16 -207 -73 -325 -71 -147 -195 -270 -345 -341 -114 -54 -183 -69 -325 -68
-113 0 -134 3 -215 31 -125 43 -207 93 -296 182 -87 87 -146 181 -186 296 -25
73 -27 93 -28 225 0 137 2 150 32 233 41 115 83 185 167 274 105 112 231 183
383 217 96 22 265 15 358 -14z m-665 -2265 l0 -205 -340 -2 c-187 -1 -361 -2
-387 -3 l-48 0 -3 208 -2 207 390 0 390 0 0 -205z"/>
<path d="M3172 3105 c-146 -35 -299 -146 -376 -273 -104 -172 -114 -396 -26
-574 127 -255 413 -388 685 -318 107 27 197 80 280 164 234 236 232 600 -5
836 -44 44 -101 89 -137 108 -124 65 -293 88 -421 57z m263 -80 c257 -67 427
-322 387 -582 -17 -109 -68 -210 -145 -287 -209 -208 -528 -207 -736 1 -161
162 -197 391 -95 602 36 73 151 189 224 224 117 56 250 71 365 42z"/>
<path d="M3282 2948 c-8 -8 -12 -57 -12 -155 l0 -142 -30 -16 c-16 -8 -37 -29
-45 -45 l-15 -29 -112 -3 c-93 -3 -113 -6 -122 -20 -8 -13 -8 -23 0 -35 9 -15
29 -18 122 -21 l112 -3 15 -29 c20 -39 63 -60 120 -60 37 0 52 6 82 33 32 30
37 41 41 91 5 57 5 57 -42 101 l-46 45 0 130 c0 72 -5 140 -10 151 -12 21 -40
25 -58 7z m56 -384 c25 -18 30 -65 8 -83 -25 -21 -69 -9 -86 22 -14 27 -14 29
13 53 33 28 36 29 65 8z"/>
</g>
</svg>
